<?xml version="1.0" encoding="utf-8"?>
<!-- Generator: Adobe Illustrator 16.0.0, SVG Export Plug-In . SVG Version: 6.00 Build 0)  -->
<!DOCTYPE svg PUBLIC "-//W3C//DTD SVG 1.1//EN" "http://www.w3.org/Graphics/SVG/1.1/DTD/svg11.dtd">
<svg version="1.1" id="图层_3" xmlns="http://www.w3.org/2000/svg" xmlns:xlink="http://www.w3.org/1999/xlink" x="0px" y="0px"
	 width="192px" height="192px" viewBox="0 0 192 192" enable-background="new 0 0 192 192" xml:space="preserve">
<path fill="#4E4E4E" d="M64.331,28.199h43.688c8.793,0.002,16.154,6.665,17.029,15.415l10.957,109.563
	c0.941,9.407-5.922,17.797-15.329,18.739c-0.563,0.056-1.129,0.085-1.694,0.085H53.381c-9.454,0.002-17.12-7.662-17.122-17.116
	c0-0.57,0.028-1.141,0.085-1.708L47.301,43.613C48.177,34.864,55.538,28.201,64.331,28.199z"/>
<path fill="#B7B6B6" d="M64.331,35.046c-5.276-0.002-9.696,3.995-10.224,9.245L43.151,153.854
	c-0.567,5.645,3.548,10.68,9.193,11.247c0.342,0.034,0.687,0.052,1.031,0.052h65.601c5.673-0.002,10.27-4.602,10.269-10.274
	c-0.001-0.342-0.018-0.684-0.052-1.024L118.236,44.291c-0.527-5.245-4.938-9.239-10.21-9.245H64.331z"/>
<polygon fill="#4E4E4E" points="83.991,124.066 83.991,31.013 90.838,31.013 90.838,124.066 128.774,124.066 128.774,130.914 
	39.481,130.914 39.481,124.066 "/>
<path fill="#4E4E4E" d="M134.595,44.085l-2.574-1.548c-1.62-0.974-2.145-3.077-1.171-4.697l7.053-11.744
	c0.977-1.618,3.079-2.139,4.697-1.164l2.973,1.78l3.506-5.546c1.012-1.6,3.128-2.077,4.728-1.065
	c1.601,1.012,2.077,3.128,1.065,4.729l-3.424,5.41l2.89,1.739c1.622,0.973,2.147,3.075,1.175,4.697
	c-0.001,0.002-0.002,0.004-0.004,0.007l-7.053,11.737c-0.975,1.62-3.077,2.144-4.698,1.17l-3.286-1.979l-50.844,80.433
	c-0.965,1.627-3.064,2.164-4.691,1.2s-2.164-3.064-1.2-4.691c0.033-0.056,0.068-0.111,0.104-0.166L134.595,44.085z"/>
</svg>
