<?xml version="1.0" encoding="utf-8"?>
<!-- Generator: Adobe Illustrator 16.0.0, SVG Export Plug-In . SVG Version: 6.00 Build 0)  -->
<!DOCTYPE svg PUBLIC "-//W3C//DTD SVG 1.1//EN" "http://www.w3.org/Graphics/SVG/1.1/DTD/svg11.dtd">
<svg version="1.1" id="图层_3" xmlns="http://www.w3.org/2000/svg" xmlns:xlink="http://www.w3.org/1999/xlink" x="0px" y="0px"
	 width="192px" height="192px" viewBox="0 0 192 192" enable-background="new 0 0 192 192" xml:space="preserve">
<rect x="67" y="73" fill="none" width="67.667" height="41.333"/>
<path fill="none" d="M108.001,81h24v24h-24V81z"/>
<path fill="none" d="M56.501,64.5h75.5V140h-75.5V64.5z"/>
<line fill="none" x1="17" y1="74.738" x2="176.469" y2="74.738"/>
<path fill="#4E4E4E" d="M172.137,32.208c0-0.847-0.333-1.657-0.939-2.247l-9.006-9.022c-1.233-1.252-3.258-1.252-4.511,0
	l-55.258,55.277c-6.04-4.696-11.472-7.035-16.426-7.035c-4.418,0-8.396,1.842-11.802,5.487c-2.688,2.873-4.622,6.372-6.15,9.189
	c-0.884,1.602-1.786,3.277-2.357,3.83c-1.583,1.583-7.568,3.664-12.872,5.487c-8.856,3.075-18.911,6.555-24.269,11.913
	c-7.089,7.09-10.256,16.813-8.912,27.419c1.197,9.593,6.095,19.297,13.423,26.625c8.581,8.58,20.292,13.719,31.322,13.719
	c8.837,0,16.683-3.185,22.722-9.206c5.23-5.23,8.342-14.659,11.085-22.98c1.878-5.746,3.849-11.693,5.8-13.646
	c0.755-0.756,2.597-1.805,4.401-2.818c5.652-3.185,13.368-7.548,14.51-16c0.754-5.487-1.528-11.582-6.905-18.487l55.259-55.259
	C171.804,33.847,172.137,33.037,172.137,32.208L172.137,32.208z"/>
<path fill="#4E4E4E" d="M169.006,36.756l-2.247-2.247c-1.234-1.252-3.259-1.252-4.512,0c-1.233,1.233-1.233,3.259,0,4.493
	c-1.233-1.234-3.258-1.234-4.511,0c-1.233,1.252-1.233,3.259,0,4.511l2.266,2.247c1.233,1.252,3.258,1.252,4.493,0
	c1.251-1.234,1.251-3.259,0-4.511l-1.861-1.878l1.879,1.878c1.233,1.252,3.26,1.252,4.493,0
	C170.258,40.015,170.258,37.99,169.006,36.756z M157.7,29.943c1.233-1.252,1.233-3.26,0-4.512l-2.247-2.247
	c-1.252-1.252-3.259-1.252-4.512,0c-1.233,1.252-1.233,3.26,0,4.512l2.246,2.247C154.44,31.195,156.447,31.195,157.7,29.943z
	 M146.431,27.697c-1.233,1.252-1.233,3.259,0,4.511l2.266,2.246c1.233,1.252,3.258,1.252,4.493,0c1.251-1.233,1.251-3.259,0-4.493
	l-2.248-2.247C149.69,26.445,147.683,26.445,146.431,27.697z"/>
<path fill="#EA4335" d="M171.197,29.943l-9.006-9.004c-1.233-1.234-3.258-1.234-4.511,0l-13.515,13.515l13.515,13.516l13.517-13.516
	c0.589-0.589,0.939-1.399,0.939-2.246S171.804,30.551,171.197,29.943z"/>
<path fill="#FFFFFF" d="M91.559,114.112c-3.738,3.735-9.778,3.735-13.515,0c-3.739-3.739-3.739-9.778,0-13.518
	c3.737-3.737,9.777-3.737,13.515,0C95.278,104.314,95.278,110.373,91.559,114.112z"/>
<path fill="#EA4335" d="M84.8,120.096c-3.406,0-6.61-1.325-9.004-3.739c-4.971-4.97-4.971-13.035,0-18.008
	c2.413-2.412,5.598-3.738,9.004-3.738s6.592,1.326,9.004,3.738c2.413,2.413,3.739,5.599,3.739,9.005
	c0,3.389-1.326,6.592-3.739,9.003C91.393,118.771,88.189,120.096,84.8,120.096L84.8,120.096z M84.8,100.983
	c-1.711,0-3.295,0.662-4.511,1.858c-2.486,2.486-2.486,6.518,0,9.005c1.197,1.196,2.799,1.858,4.511,1.858
	c1.695,0,3.296-0.662,4.493-1.858c1.197-1.198,1.86-2.798,1.86-4.493c0-1.713-0.664-3.297-1.86-4.512
	C88.097,101.646,86.495,100.983,84.8,100.983z M75.778,137.553c-0.81,0-1.62-0.313-2.247-0.94l-18.008-18.009
	c-1.233-1.233-1.233-3.258,0-4.491c1.234-1.254,3.26-1.254,4.511,0l18.009,18.008c1.233,1.233,1.233,3.258,0,4.492
	C77.417,137.239,76.606,137.553,75.778,137.553z M141.901,54.69c-1.233,1.252-3.26,1.252-4.511,0c-1.235-1.233-1.235-3.259,0-4.493
	c1.233-1.251,3.258-1.251,4.511,0C143.152,51.432,143.152,53.457,141.901,54.69z M132.897,63.695c-1.234,1.252-3.26,1.252-4.493,0
	c-1.253-1.234-1.253-3.26,0-4.493c1.233-1.252,3.259-1.252,4.493,0C134.148,60.436,134.148,62.461,132.897,63.695z M123.893,72.699
	c-1.234,1.252-3.259,1.252-4.512,0c-1.233-1.251-1.233-3.259,0-4.492c1.253-1.252,3.26-1.252,4.512,0
	C125.127,69.44,125.127,71.465,123.893,72.699z"/>
</svg>
