<?xml version="1.0" encoding="utf-8"?>
<!-- Generator: Adobe Illustrator 16.0.0, SVG Export Plug-In . SVG Version: 6.00 Build 0)  -->
<!DOCTYPE svg PUBLIC "-//W3C//DTD SVG 1.1//EN" "http://www.w3.org/Graphics/SVG/1.1/DTD/svg11.dtd">
<svg version="1.1" id="图层_3" xmlns="http://www.w3.org/2000/svg" xmlns:xlink="http://www.w3.org/1999/xlink" x="0px" y="0px"
	 width="192px" height="192px" viewBox="0 0 192 192" enable-background="new 0 0 192 192" xml:space="preserve">
<path fill="#34A853" d="M141.567,132.868c-4.209,0-7.612-3.305-7.612-7.373V66.538c-0.198-4.07,3.05-7.524,7.252-7.717
	c4.203-0.192,7.772,2.955,7.968,7.024c0.014,0.231,0.014,0.461,0,0.692v58.952c0,4.069-3.399,7.374-7.611,7.374L141.567,132.868z
	 M164.389,118.122c-4.199,0-7.61-3.309-7.61-7.374V81.275c-0.198-4.07,3.048-7.524,7.252-7.714c4.203-0.19,7.772,2.952,7.97,7.021
	v30.169c0,4.074-3.413,7.374-7.611,7.374V118.122z M50.229,140.244c-4.2,0-7.611-3.309-7.611-7.374V59.178
	c-0.197-4.069,3.05-7.525,7.252-7.715c4.203-0.19,7.771,2.952,7.968,7.021c0.012,0.231,0.012,0.462,0,0.694v73.69
	c0,4.073-3.411,7.374-7.611,7.374L50.229,140.244z M73.064,169.723c-4.198,0-7.611-3.298-7.611-7.362V29.7
	c-0.198-4.069,3.051-7.523,7.254-7.716c4.203-0.192,7.771,2.954,7.968,7.024c0.009,0.23,0.009,0.46,0,0.691v132.644
	c0,4.074-3.411,7.373-7.612,7.373V169.723z M95.898,140.244c-4.208,0-7.611-3.303-7.611-7.374V59.178
	c-0.198-4.069,3.049-7.525,7.252-7.715c4.203-0.19,7.771,2.952,7.968,7.021c0.012,0.231,0.012,0.462,0,0.694v73.69
	c0,4.073-3.411,7.374-7.611,7.374h0.017L95.898,140.244z M118.72,118.124c-4.181-0.027-7.558-3.311-7.565-7.36V81.271
	c-0.199-4.07,3.05-7.523,7.25-7.714c4.199-0.191,7.772,2.952,7.97,7.021c0.012,0.231,0.012,0.462,0,0.693v29.481
	c0,4.065-3.387,7.374-7.584,7.374h-0.058L118.72,118.124z M27.383,118.124c-4.208,0-7.611-3.301-7.611-7.374h0.012V81.275
	c-0.199-4.07,3.047-7.524,7.253-7.714c4.205-0.19,7.78,2.952,7.97,7.021v30.169c0,4.069-3.394,7.37-7.597,7.378L27.383,118.124z"/>
</svg>
